<?xml version="1.0" encoding="utf-8"?>
<!-- Generator: Adobe Illustrator 26.0.1, SVG Export Plug-In . SVG Version: 6.00 Build 0)  -->
<svg version="1.1" id="Layer_1" xmlns="http://www.w3.org/2000/svg" xmlns:xlink="http://www.w3.org/1999/xlink" x="0px" y="0px"
	 viewBox="0 0 500 10" style="enable-background:new 0 0 500 10;" xml:space="preserve">
<style type="text/css">
	.st0{fill:#161618;}
	.st1{fill:none;stroke:url(#wavy_line_16161854256638527194391080000017401569049135790478_);stroke-width:2;stroke-miterlimit:10;}
</style>
<path id="wavy_line_1_" class="st0" d="M520,9c-33.8,0-33.8-8-67.5-8S418.8,9,385,9s-33.8-8-67.5-8S283.8,9,250,9s-33.8-8-67.5-8
	S148.8,9,115,9C81.3,9,81.3,1,47.5,1S13.8,9-20,9v2h540V9z"/>
<linearGradient id="wavy_line_16161852819154625365507916161812581475502139771027_" gradientUnits="userSpaceOnUse" x1="1151.9758" y1="759.1891" x2="1151.9758" y2="219.1891" gradientTransform="matrix(0 1 -1 0 739.1891 -1146.9758)">
	<stop  offset="0" style="stop-color:#DBA0FC"/>
	<stop  offset="0.2033" style="stop-color:#f84ddb"/>
	<stop  offset="0.3626" style="stop-color:#12b6ff"/>
	<stop  offset="0.3984" style="stop-color:#a7e0fa"/>
	<stop  offset="0.5209" style="stop-color:#f84ddb"/>
	<stop  offset="0.7687" style="stop-color:#84A1FD"/>
	<stop  offset="0.8949" style="stop-color:#ff7de9"/>
	<stop  offset="1" style="stop-color:#FFFFFF"/>
</linearGradient>
<path id="wavy_line_2_" style="fill:none;stroke:url(#wavy_line_16161852819154625365507916161812581475502139771027_);stroke-width:2;stroke-miterlimit:10;" d="
	M520,9c-33.8,0-33.8-8-67.5-8S418.8,9,385,9s-33.8-8-67.5-8S283.8,9,250,9s-33.8-8-67.5-8S148.8,9,115,9C81.3,9,81.3,1,47.5,1
	S13.8,9-20,9"/>
<path class="st0" d="M-17.9-2c-0.2,3.3-0.4,6.7-0.6,10C14,7.8,14.4,0,47.7,0c33.8,0,33.8,8,67.5,8s33.8-8,67.5-8s33.8,8,67.5,8
	s33.8-8,67.5-8s33.8,8,67.5,8s33.8-8,67.5-8v-2H-17.9z"/>
<path class="st0" d="M519.9-2h-67.2v2c33.8,0,33.7,8,67.5,8c0.2,0,0.4,0,0.7,0C520.4,4.6,519.9,1.3,519.9-2z"/>
</svg>
